<svg version="1.1" xmlns="http://www.w3.org/2000/svg" xmlns:xlink="http://www.w3.org/1999/xlink" width="48" height="48"><defs><linearGradient x1="12.23187" y1="12.23187" x2="61.31951" y2="61.3195" gradientUnits="userSpaceOnUse" id="color-1"><stop offset="0" stop-color="#000000" stop-opacity="0.3"></stop><stop offset="1" stop-color="#000000" stop-opacity="0"></stop></linearGradient><filter id="dropshadow-base"><feColorMatrix type="matrix" values="0 0 0 0 0  0 0 0 0 0  0 0 0 0 0  0 0 0 .8 0"></feColorMatrix> <feOffset dx="0" dy="1"></feOffset> <feGaussianBlur stdDeviation="1"></feGaussianBlur> <feComposite in="SourceGraphic"></feComposite></filter><filter id="dropshadow-banner" x="-10%" y="-10%" width="120%" height="130%"><feColorMatrix type="matrix" values="0 0 0 0 0  0 0 0 0 0  0 0 0 0 0  0 0 0 .4 0"></feColorMatrix> <feOffset dx="0" dy="1"></feOffset> <feGaussianBlur stdDeviation="0.5"></feGaussianBlur> <feComposite in="SourceGraphic"></feComposite></filter></defs><g fill="none" fill-rule="nonzero" stroke="none" stroke-width="none" stroke-linecap="butt" stroke-linejoin="miter" stroke-miterlimit="10" stroke-dasharray="" stroke-dashoffset="0" font-family="none" font-weight="none" font-size="none" text-anchor="none" style="mix-blend-mode: normal"><path d="M2,24c0,-12.15026 9.84974,-22 22,-22c12.15026,0 22,9.84974 22,22c0,12.15026 -9.84974,22 -22,22c-12.15026,0 -22,-9.84974 -22,-22z" id="base 1 5" fill="#558b2f" stroke-width="1"></path><path d="M12.23187,33.62846v-17.11728h2.13966l2.13967,2.13967v-4.27933c0,-1.18216 0.95749,-2.13966 2.13966,-2.13966h14.97762c0.59108,0 1.126,0.23937 1.51314,0.62652l10.85658,10.85658c0.0012,0.09487 0.00181,0.18988 0.00181,0.28504c0,12.15026 -9.84974,22 -22,22c-0.09515,0 -0.19016,-0.0006 -0.28503,-0.00181l-10.85659,-10.85659c-0.38714,-0.38714 -0.62652,-0.92206 -0.62652,-1.51314z" fill="url(#color-1)" stroke-width="1"></path><path d="M14.37153,16.51119h-2.13966v17.11728c0,1.18216 0.9575,2.13966 2.13966,2.13966h17.11728v-2.13966h-17.11728zM26.13966,24v-4.27932c0,-1.18216 -0.9575,-2.13966 -2.13966,-2.13966h-1.06983c-1.18216,0 -2.13966,0.9575 -2.13966,2.13966v1.06983c0,1.18216 0.9575,2.13966 2.13966,2.13966h1.06983v1.06983h-3.20949v2.13966h3.20949c1.18216,0 2.13966,-0.9575 2.13966,-2.13966zM22.93017,20.79051v-1.06983h1.06983v1.06983zM33.62847,12.23187h-14.97762c-1.18216,0 -2.13966,0.9575 -2.13966,2.13966v14.97762c0,1.18216 0.9575,2.13966 2.13966,2.13966h14.97762c1.18216,0 2.13966,-0.9575 2.13966,-2.13966v-14.97762c0,-1.18216 -0.9575,-2.13966 -2.13966,-2.13966zM33.62847,20.79051h-2.13966v-2.13966h-2.13966v2.13966h-2.13966v2.13966h2.13966v2.13966h2.13966v-2.13966h2.13966v6.41898h-14.97762v-14.97762h14.97762z" fill="none" stroke-width="0"></path><path d="M14.37153,33.62847h17.11728v2.13966h-17.11728c-1.18216,0 -2.13966,-0.9575 -2.13966,-2.13966v-17.11728h2.13966zM24,26.13966h-3.20949v-2.13966h3.20949v-1.06983h-1.06983c-1.18216,0 -2.13966,-0.9575 -2.13966,-2.13966v-1.06983c0,-1.18216 0.9575,-2.13966 2.13966,-2.13966h1.06983c1.18216,0 2.13966,0.9575 2.13966,2.13966v4.27932c0,1.18216 -0.9575,2.13966 -2.13966,2.13966zM24,20.79051v-1.06983h-1.06983v1.06983zM35.76813,14.37153v14.97762c0,1.18216 -0.9575,2.13966 -2.13966,2.13966h-14.97762c-1.18216,0 -2.13966,-0.9575 -2.13966,-2.13966v-14.97762c0,-1.18216 0.9575,-2.13966 2.13966,-2.13966h14.97762c1.18216,0 2.13966,0.9575 2.13966,2.13966zM33.62847,14.37153h-14.97762v14.97762h14.97762v-6.41898h-2.13966v2.13966h-2.13966v-2.13966h-2.13966v-2.13966h2.13966v-2.13966h2.13966v2.13966h2.13966z" fill="#ffffff" stroke-width="0"></path><path d="M2,24c0,-12.15026 9.84974,-22 22,-22c12.15026,0 22,9.84974 22,22c0,12.15026 -9.84974,22 -22,22c-12.15026,0 -22,-9.84974 -22,-22z" id="base 1 1 1" fill="none" stroke-width="1"></path><g fill="#000000" stroke-width="1" font-family="Roboto, sans-serif" font-weight="400" font-size="14" text-anchor="start"></g><rect x="2" y="2" width="44" height="22" fill="none" stroke-width="1"></rect><path d="M2,24v-22h44v22z" fill="none" stroke-width="1"></path><path d="M2,24v-22h44v22z" fill="none" stroke-width="1"></path><path d="M2,24v-22h44v22z" fill="none" stroke-width="1"></path><path d="M2,24v-22h44v22z" fill="none" stroke-width="1"></path></g></svg>